<svg xmlns="http://www.w3.org/2000/svg" viewBox="0 0 48 48" fill="none">
  <rect width="48" height="48" rx="14" fill="#172b50"/>
  <g transform="rotate(-24 24 26)">
    <path d="M32 12H21a7 7 0 0 0 0 14h6a7 7 0 0 1 0 14H16" stroke="#edf3ff" stroke-width="6.5" stroke-linecap="round"/>
    <path d="M32 12H21a7 7 0 0 0 0 14h6a7 7 0 0 1 0 14H16" stroke="#52729b" stroke-width="1.1" stroke-linecap="round" stroke-dasharray="3 3"/>
  </g>
  <path d="M33 21s7-5.9 7-11a7 7 0 1 0-14 0c0 5.1 7 11 7 11Z" fill="#d5983e" stroke="#172b50" stroke-width="1.8" stroke-linejoin="round"/>
  <circle cx="33" cy="10" r="2.5" fill="#172b50"/>
</svg>
